# Blender v3.2.1 OBJ File: 'NatureFreePack1.blend'
# www.blender.org
mtllib Branch.mtl
o Branch_Cylinder.003
v 4.264536 0.145639 4.714586
v 2.948814 0.091752 4.754112
v 2.281138 -0.121812 4.825919
v 4.261274 -0.060605 4.833616
v 2.937233 -0.114907 5.110841
v 4.254750 -0.060605 5.071677
v 2.936982 0.091114 5.231514
v 4.251489 0.145639 5.190707
v 2.938666 0.297578 5.114135
v 4.254750 0.351883 5.071677
v 2.945189 0.297578 4.876074
v 4.261274 0.351883 4.833616
v 5.013439 0.087393 4.794386
v 5.009728 -0.094991 4.907110
v 5.007213 -0.086546 5.113143
v 4.989053 0.090290 5.229611
v 5.034020 0.229160 5.090676
v 4.964435 0.302646 5.125181
v 4.996697 0.290127 4.895218
v 2.274929 0.091608 4.702938
v 2.161191 0.037809 4.836741
v 2.265144 -0.114636 5.060029
v 2.261881 0.091608 5.179059
v 2.154175 0.031573 5.034234
v 2.265144 0.297852 5.060029
v 2.271668 0.297852 4.821968
v 2.155965 0.201417 4.915474
v 2.731207 0.297715 4.852386
v 2.724683 0.297715 5.090446
v 2.889421 0.485419 4.930480
v 2.886209 0.485419 5.047717
v 2.784042 0.485486 4.918814
v 2.780829 0.485486 5.036051
v 2.861101 0.623409 4.883321
v 2.814459 0.620878 4.879829
vt 0.500000 0.636017
vt 0.333333 0.635639
vt 0.333333 0.576933
vt 0.166667 0.635639
vt 0.333333 0.635639
vt 0.159655 0.991075
vt -0.000000 0.864361
vt 0.166667 0.864361
vt 0.333333 0.864361
vt 0.500000 0.864361
vt 0.333333 0.988061
vt 0.666667 0.864361
vt 0.491862 0.991559
vt 0.666667 0.635152
vt 0.833333 0.519910
vt 0.833333 0.864361
vt 1.000000 0.635650
vt 1.000000 0.864361
vt 0.821701 0.993061
vt 0.988312 0.993086
vt 0.500000 0.518227
vt 0.666667 0.518227
vt 0.166667 0.518227
vt -0.000000 0.635650
vt -0.000000 0.518227
vt 0.333333 0.518227
vt 0.166667 0.576933
vt 1.000000 0.518227
vt 0.166667 0.576933
vt 0.166667 0.635639
vt 0.333333 0.576933
vt 0.221120 0.635639
vt 0.226731 0.576933
vt 0.011688 0.993086
vt 0.653276 0.993817
vt 0.111422 0.169992
vt 0.250000 0.089984
vt 0.388578 0.169992
vt 0.361105 1.000000
vt 0.709019 0.500000
vt 0.790981 0.500000
vt 0.457647 0.500000
vt 0.238171 0.500000
vt 0.124314 0.500000
vt 0.388578 0.330008
vt 0.250000 0.410016
vt 0.111422 0.330008
vt 0.305561 1.000000
vt 0.173678 0.991075
vt 0.917539 0.500000
vt 0.584101 0.500000
vt 0.375686 0.500000
vt 0.042352 0.500000
vt 0.647788 0.267033
vt 0.800018 0.339147
vt 0.802064 0.162034
vn -0.0954 0.4926 0.8650
vn 0.9604 0.2775 0.0263
vn 0.1138 0.4980 -0.8597
vn 0.0835 0.9965 0.0023
vn -0.0306 0.5000 0.8655
vn -0.0830 -0.4991 0.8626
vn -0.0485 0.4987 -0.8654
vn -0.0413 0.9991 -0.0011
vn 0.0065 0.4942 0.8693
vn 0.0464 -0.5048 0.8620
vn 0.0309 -0.9995 0.0008
vn -0.0056 -0.4998 -0.8661
vn -0.0458 -0.9990 -0.0013
vn 0.0532 -0.4998 -0.8645
vn -0.0655 -0.4996 0.8638
vn 0.0655 0.4996 -0.8638
vn 0.0003 1.0000 0.0000
vn -0.0571 0.4997 0.8643
vn 0.0658 -0.4968 -0.8654
vn -0.9598 0.2794 -0.0263
vn 0.1050 0.3053 -0.9465
vn -0.1046 0.3054 0.9464
vn 0.1047 -0.3023 -0.9474
vn -0.0894 0.7621 0.6413
vn 0.9774 0.2097 0.0268
vn 0.1292 0.4501 -0.8836
vn 0.0951 0.5087 -0.8557
vn 0.0725 0.9964 -0.0441
vn -0.0144 0.4399 0.8979
vn -0.0648 -0.5535 0.8303
vn -0.0467 0.5086 -0.8597
vn 0.0073 0.4998 0.8661
vn 0.0476 -0.4987 0.8655
vn 0.0391 -0.9971 -0.0659
vn 0.0147 -0.3598 -0.9329
vn -0.0367 -0.9985 0.0405
vn 0.0592 -0.5257 -0.8486
vn -0.0673 -0.5043 0.8609
vn 0.0581 0.4793 -0.8758
vn -0.0027 -0.9995 0.0305
vn -0.0660 0.5155 0.8543
vn -0.9770 0.2118 -0.0268
vn 0.0872 -0.2937 -0.9519
vn -0.0712 0.7586 0.6476
vn 0.9665 -0.0644 0.2485
vn 0.7002 0.3788 0.6052
vn -0.8001 -0.5980 -0.0473
vn -0.8212 0.2949 0.4885
vn -0.6486 0.7609 -0.0178
vn -0.7434 0.3255 -0.5843
vn 0.9964 -0.0835 0.0156
vn 0.9978 -0.0487 -0.0460
vn 0.9787 0.1504 -0.1400
vn 0.7401 0.6691 0.0674
vn -0.6070 -0.4100 -0.6808
vn -0.7930 -0.6082 -0.0355
vn -0.6573 -0.3845 0.6482
vn -0.8466 0.3110 0.4320
vn -0.7851 0.2481 -0.5676
vn -0.9992 -0.0146 -0.0360
g Branch_Cylinder.003_Branch1_1
usemtl Branch1_1
s off
f 7/1/1 9/2/1 29/3/1
f 11/4/2 31/5/2 9/2/2
f 19/6/3 1/7/3 12/8/3
f 10/9/4 19/6/4 12/8/4
f 8/10/5 18/11/5 10/9/5
f 6/12/6 16/13/6 8/10/6
f 1/7/7 11/4/7 12/8/7
f 10/9/8 11/4/8 9/2/8
f 8/10/9 9/2/9 7/1/9
f 6/12/10 7/1/10 5/14/10
f 6/12/11 3/15/11 4/16/11
f 4/16/12 2/17/12 1/18/12
f 14/19/13 6/12/13 4/16/13
f 13/20/14 4/16/14 1/18/14
f 5/14/15 23/21/15 22/22/15
f 26/23/16 2/24/16 20/25/16
f 25/26/17 28/27/17 26/23/17
f 23/21/18 29/3/18 25/26/18
f 2/17/19 3/15/19 20/28/19
f 29/3/20 32/29/20 28/27/20
f 11/4/21 32/29/21 30/30/21
f 29/3/22 31/5/22 33/31/22
f 32/29/23 34/32/23 30/30/23
f 33/31/24 34/32/24 35/33/24
f 30/30/25 34/32/25 31/5/25
f 11/4/2 30/30/2 31/5/2
f 19/6/26 13/34/26 1/7/26
f 28/27/27 11/4/27 2/24/27
f 10/9/28 18/11/28 19/6/28
f 8/10/29 16/13/29 18/11/29
f 6/12/30 15/35/30 16/13/30
f 1/7/31 2/24/31 11/4/31
f 10/9/8 12/8/8 11/4/8
f 8/10/32 10/9/32 9/2/32
f 6/12/33 8/10/33 7/1/33
f 6/12/34 5/14/34 3/15/34
f 4/16/35 3/15/35 2/17/35
f 14/19/36 15/35/36 6/12/36
f 13/20/37 14/19/37 4/16/37
f 5/14/38 7/1/38 23/21/38
f 26/23/39 28/27/39 2/24/39
f 3/15/40 5/14/40 22/22/40
f 25/26/17 29/3/17 28/27/17
f 23/21/41 7/1/41 29/3/41
f 32/29/42 33/31/42 35/33/42
f 29/3/20 33/31/20 32/29/20
f 11/4/21 28/27/21 32/29/21
f 29/3/22 9/2/22 31/5/22
f 32/29/43 35/33/43 34/32/43
f 33/31/44 31/5/44 34/32/44
g Branch_Cylinder.003_Branch1_2
usemtl Branch1_2
f 17/36/45 16/37/45 15/38/45
f 16/13/46 17/39/46 18/11/46
f 3/15/47 24/40/47 21/41/47
f 25/26/48 24/42/48 23/21/48
f 26/23/49 27/43/49 25/26/49
f 20/25/50 27/44/50 26/23/50
f 15/38/51 14/45/51 17/36/51
f 14/45/52 13/46/52 17/36/52
f 13/46/53 19/47/53 17/36/53
f 18/11/54 17/48/54 19/49/54
f 20/28/55 3/15/55 21/50/55
f 3/15/56 22/22/56 24/40/56
f 22/22/57 23/21/57 24/51/57
f 25/26/58 27/52/58 24/42/58
f 20/25/59 21/53/59 27/44/59
f 27/54/60 21/55/60 24/56/60
