# Blender v3.2.1 OBJ File: 'NatureFreePack1.blend'
# www.blender.org
mtllib Grass2.mtl
o Grass2_Cube.055
v 0.735995 0.001948 5.008798
v 0.664327 0.383602 5.070951
v 0.684859 0.001948 4.964432
v 0.627817 0.383602 5.039274
v 0.780361 0.001948 4.957661
v 0.694540 0.398123 5.036127
v 0.729224 0.001948 4.913295
v 0.658030 0.398123 5.004451
v 0.557960 0.606075 5.175833
v 0.538991 0.606075 5.159376
v 0.548904 0.626120 5.147949
v 0.567873 0.626120 5.164406
v 0.432653 0.685298 5.301103
v 0.831005 0.001948 4.916075
v 0.819659 0.241212 4.899596
v 0.751774 0.001948 4.916754
v 0.762836 0.241212 4.900083
v 0.830468 0.001948 4.853424
v 0.819274 0.241212 4.854663
v 0.751237 0.001948 4.854103
v 0.762450 0.241212 4.855150
v 0.808803 0.452231 4.834727
v 0.772578 0.452231 4.835038
v 0.772346 0.442722 4.808017
v 0.808572 0.442722 4.807706
v 0.801617 0.601822 4.751659
v 0.778340 0.601822 4.751859
v 0.778221 0.589689 4.738018
v 0.801498 0.589689 4.737818
v 0.788885 0.695891 4.624192
v 0.770362 0.000952 4.962605
v 0.790506 0.239675 4.978510
v 0.814616 0.005306 4.897027
v 0.822244 0.242797 4.931478
v 0.822332 -0.001409 4.997519
v 0.827778 0.237981 5.003550
v 0.866586 0.002945 4.931941
v 0.859516 0.241104 4.956518
v 0.850261 0.448342 5.020245
v 0.870495 0.450333 4.990261
v 0.892904 0.439828 5.004686
v 0.872670 0.437837 5.034669
v 0.922915 0.594825 5.071176
v 0.935916 0.596104 5.051910
v 0.947390 0.583476 5.058815
v 0.934389 0.582197 5.078081
v 1.035288 0.684517 5.138901
vt 0.713285 0.570428
vt 0.713285 0.286715
vt 0.643858 0.286715
vt 0.643858 0.570428
vt 0.286715 0.641856
vt 0.570428 0.641856
vt 0.570428 0.572430
vt 0.286715 0.572430
vt 0.498999 0.570428
vt 0.498999 0.286715
vt 0.429572 0.286715
vt 0.429572 0.570428
vt 0.286715 0.856142
vt 0.570428 0.856142
vt 0.570428 0.786715
vt 0.286715 0.786715
vt 0.284713 0.286715
vt 0.143858 0.286715
vt 0.143858 0.427570
vt 0.284713 0.427570
vt 0.498999 0.001001
vt 0.429572 0.001001
vt 0.429572 0.284713
vt 0.498999 0.284713
vt 0.570428 0.930573
vt 0.570428 0.998999
vt 0.287716 0.998999
vt 0.427570 0.498999
vt 0.427570 0.429572
vt 0.143858 0.429572
vt 0.143858 0.498999
vt 0.570428 0.001001
vt 0.501001 0.001001
vt 0.501001 0.284713
vt 0.570428 0.284713
vt 0.427570 0.570428
vt 0.427570 0.501001
vt 0.143858 0.501001
vt 0.143858 0.570428
vt 0.286715 0.997998
vt 0.286715 0.929572
vt 0.569427 0.929572
vt 0.998999 0.570428
vt 0.930573 0.570428
vt 0.998999 0.287716
vt 0.997998 0.286715
vt 0.929572 0.286715
vt 0.929572 0.569427
vt 0.427570 0.284713
vt 0.427570 0.001001
vt 0.286715 0.001001
vt 0.286715 0.284713
vt 0.001001 0.641856
vt 0.284713 0.641856
vt 0.284713 0.572430
vt 0.001001 0.572430
vt 0.284713 0.284713
vt 0.284713 0.001001
vt 0.143858 0.001001
vt 0.143858 0.284713
vt 0.001001 0.713285
vt 0.284713 0.713285
vt 0.284713 0.643858
vt 0.001001 0.643858
vt 0.427570 0.286715
vt 0.286715 0.286715
vt 0.286715 0.427570
vt 0.427570 0.427570
vt 0.570428 0.286715
vt 0.501001 0.286715
vt 0.501001 0.570428
vt 0.570428 0.570428
vt 0.570428 0.713285
vt 0.570428 0.643858
vt 0.286715 0.643858
vt 0.286715 0.713285
vt 0.641856 0.001001
vt 0.572430 0.001001
vt 0.572430 0.284713
vt 0.641856 0.284713
vt 0.284713 0.784713
vt 0.284713 0.715287
vt 0.001001 0.715287
vt 0.001001 0.784713
vt 0.641856 0.286715
vt 0.572430 0.286715
vt 0.572430 0.570428
vt 0.641856 0.570428
vt 0.284713 0.930573
vt 0.284713 0.998999
vt 0.002002 0.998999
vt 0.570428 0.784713
vt 0.570428 0.715287
vt 0.286715 0.715287
vt 0.286715 0.784713
vt 0.713285 0.001001
vt 0.643858 0.001001
vt 0.643858 0.284713
vt 0.713285 0.284713
vt 0.284713 0.856142
vt 0.284713 0.786715
vt 0.001001 0.786715
vt 0.001001 0.856142
vt 0.930573 0.284713
vt 0.998999 0.284713
vt 0.998999 0.002002
vt 0.856142 0.859145
vt 0.856142 0.927570
vt 0.573431 0.927570
vt 0.927570 0.856142
vt 0.859145 0.856142
vt 0.927570 0.573431
vt 0.141856 0.570428
vt 0.141856 0.286715
vt 0.001001 0.286715
vt 0.001001 0.570428
vt 0.572430 0.641856
vt 0.856142 0.641856
vt 0.856142 0.572430
vt 0.572430 0.572430
vt 0.141856 0.284713
vt 0.141856 0.001001
vt 0.001001 0.001001
vt 0.001001 0.284713
vt 0.572430 0.713285
vt 0.856142 0.713285
vt 0.856142 0.643858
vt 0.572430 0.643858
vt 0.856142 0.001001
vt 0.715287 0.001001
vt 0.715287 0.141856
vt 0.856142 0.141856
vt 0.784713 0.143858
vt 0.715287 0.143858
vt 0.715287 0.427570
vt 0.784713 0.427570
vt 0.856142 0.784713
vt 0.856142 0.715287
vt 0.572430 0.715287
vt 0.572430 0.784713
vt 0.856142 0.143858
vt 0.786715 0.143858
vt 0.786715 0.427570
vt 0.856142 0.427570
vt 0.856142 0.856142
vt 0.856142 0.786715
vt 0.572430 0.786715
vt 0.572430 0.856142
vt 0.927570 0.001001
vt 0.858144 0.001001
vt 0.858144 0.284713
vt 0.927570 0.284713
vt 0.001001 0.929572
vt 0.001001 0.997998
vt 0.283712 0.929572
vt 0.284713 0.927570
vt 0.284713 0.858144
vt 0.001001 0.858144
vt 0.001001 0.927570
vt 0.927570 0.286715
vt 0.858144 0.286715
vt 0.858144 0.570428
vt 0.927570 0.570428
vt 0.570428 0.927570
vt 0.570428 0.858144
vt 0.286715 0.858144
vt 0.286715 0.927570
vt 0.929572 0.001001
vt 0.997998 0.001001
vt 0.929572 0.283712
vt 0.572430 0.926569
vt 0.572430 0.858144
vt 0.855141 0.858144
vt 0.858144 0.572430
vt 0.926569 0.572430
vt 0.858144 0.855141
vn -0.6364 -0.2389 0.7335
vn -0.7565 0.0148 -0.6538
vn 0.6291 0.2799 -0.7251
vn 0.7521 0.0333 0.6582
vn 0.0000 -1.0000 0.0000
vn -0.7682 0.0365 -0.6392
vn 0.1931 0.9556 -0.2226
vn 0.5145 0.6194 -0.5930
vn -0.5446 -0.5563 0.6277
vn 0.7412 0.0365 0.6703
vn -0.2681 -0.9125 0.3090
vn 0.7190 0.0400 0.6939
vn -0.7884 0.0400 -0.6139
vn 0.0085 0.0691 0.9976
vn -0.9989 0.0468 0.0086
vn -0.9988 0.0481 0.0026
vn -0.9989 0.0468 0.0083
vn -0.0086 0.0048 -1.0000
vn 0.9989 0.0468 -0.0086
vn 0.9989 0.0468 -0.0088
vn 0.9987 0.0481 -0.0146
vn -0.0083 -0.2274 -0.9738
vn 0.9991 0.0343 -0.0267
vn 0.0082 0.2942 0.9557
vn 0.9987 0.0481 -0.0149
vn -0.9988 0.0481 0.0022
vn -0.0059 -0.7309 -0.6825
vn -0.9994 0.0343 -0.0096
vn -0.0078 -0.4297 -0.9029
vn 0.0075 0.4857 0.8741
vn 0.0051 0.8048 0.5935
vn 0.9967 0.0564 -0.0580
vn -0.9976 0.0564 -0.0409
vn -0.8275 0.1066 -0.5513
vn 0.5579 0.1016 -0.8236
vn 0.5628 0.1026 -0.8202
vn 0.5581 0.1016 -0.8236
vn 0.8295 -0.0329 0.5576
vn -0.5579 -0.0082 0.8299
vn -0.5577 -0.0082 0.8300
vn -0.5529 -0.0072 0.8332
vn -0.0006 -0.9978 -0.0666
vn 0.8076 -0.2636 0.5275
vn -0.5430 -0.0214 0.8394
vn -0.7926 0.3296 -0.5130
vn -0.5526 -0.0071 0.8334
vn 0.5632 0.1027 -0.8199
vn 0.5657 -0.7550 0.3316
vn 0.5732 0.0884 -0.8146
vn 0.7487 -0.4628 0.4745
vn -0.7248 0.5176 -0.4547
vn -0.4918 0.8254 -0.2771
vn -0.5159 -0.0004 0.8566
vn 0.5980 0.1092 -0.7940
g Grass2_Cube.055_Grass1_1.001
usemtl Grass1_1.001
s 1
f 1/1/1 2/2/1 4/3/1 3/4/1
f 3/5/2 4/6/2 8/7/2 7/8/2
f 7/9/3 8/10/3 6/11/3 5/12/3
f 5/13/4 6/14/4 2/15/4 1/16/4
f 3/17/5 7/18/5 5/19/5 1/20/5
f 8/21/6 4/22/6 10/23/6 11/24/6
f 12/25/7 11/26/7 13/27/7
f 6/28/8 8/29/8 11/30/8 12/31/8
f 4/32/9 2/33/9 9/34/9 10/35/9
f 2/36/10 6/37/10 12/38/10 9/39/10
f 10/40/11 9/41/11 13/42/11
f 9/43/12 12/44/12 13/45/12
f 11/46/13 10/47/13 13/48/13
f 14/49/14 15/50/14 17/51/14 16/52/14
f 16/53/15 17/54/16 21/55/17 20/56/15
f 20/57/18 21/58/18 19/59/18 18/60/18
f 18/61/19 19/62/20 15/63/21 14/64/19
f 16/65/5 20/66/5 18/67/5 14/68/5
f 19/69/22 21/70/22 24/71/22 25/72/22
f 22/73/23 25/74/23 29/75/23 26/76/23
f 17/77/24 15/78/24 22/79/24 23/80/24
f 15/81/21 19/82/20 25/83/25 22/84/25
f 21/85/17 17/86/16 23/87/26 24/88/26
f 29/89/27 28/90/27 30/91/27
f 24/92/28 23/93/28 27/94/28 28/95/28
f 25/96/29 24/97/29 28/98/29 29/99/29
f 23/100/30 22/101/30 26/102/30 27/103/30
f 27/104/31 26/105/31 30/106/31
f 26/107/32 29/108/32 30/109/32
f 28/110/33 27/111/33 30/112/33
f 31/113/34 32/114/34 34/115/34 33/116/34
f 33/117/35 34/118/36 38/119/37 37/120/35
f 37/121/38 38/122/38 36/123/38 35/124/38
f 35/125/39 36/126/40 32/127/41 31/128/39
f 33/129/42 37/130/42 35/131/42 31/132/42
f 36/133/43 38/134/43 41/135/43 42/136/43
f 39/137/44 42/138/44 46/139/44 43/140/44
f 34/141/45 32/142/45 39/143/45 40/144/45
f 32/145/41 36/146/40 42/147/46 39/148/46
f 38/149/37 34/150/36 40/151/47 41/152/47
f 46/153/48 45/154/48 47/155/48
f 41/156/49 40/157/49 44/158/49 45/159/49
f 42/160/50 41/161/50 45/162/50 46/163/50
f 40/164/51 39/165/51 43/166/51 44/167/51
f 44/168/52 43/169/52 47/170/52
f 43/171/53 46/172/53 47/173/53
f 45/174/54 44/175/54 47/176/54
