# Blender v3.2.1 OBJ File: 'NatureFreePack1.blend'
# www.blender.org
mtllib Grass1.mtl
o Grass1_Cube.051
v -0.576318 0.001948 4.929842
v -0.609508 0.500797 4.911094
v -0.664577 0.001948 4.930598
v -0.671544 0.500797 4.908602
v -0.577075 0.001948 4.841583
v -0.631888 0.500797 4.867295
v -0.665333 0.001948 4.842340
v -0.675220 0.500797 4.846499
v -0.637056 1.013715 4.878742
v -0.663258 1.013715 4.882487
v -0.660705 1.013715 4.855064
v -0.633513 1.013715 4.852228
v -0.640322 1.315758 4.750216
v -0.532091 -0.007836 4.984859
v -0.492323 0.407090 5.080018
v -0.595310 -0.007836 5.022550
v -0.537460 0.407090 5.106928
v -0.569783 -0.007836 4.921640
v -0.517991 0.422877 5.036966
v -0.633002 -0.007836 4.959332
v -0.563127 0.422877 5.063877
v -0.420252 0.648957 5.225552
v -0.443703 0.648956 5.239534
v -0.452125 0.670750 5.225408
v -0.428674 0.670750 5.211426
v -0.333580 0.735086 5.397583
v -0.698324 -0.025317 4.921235
v -0.850915 0.367854 4.991467
v -0.726891 -0.021577 4.853506
v -0.871311 0.370524 4.943111
v -0.631166 -0.013423 4.893565
v -0.807227 0.391513 4.974346
v -0.659734 -0.009684 4.825836
v -0.827623 0.394182 4.925990
v -1.034895 0.580703 5.067101
v -1.045492 0.582091 5.041977
v -1.033310 0.606226 5.038172
v -1.022713 0.604839 5.063296
v -1.226680 0.635233 5.136169
v -0.694307 0.001948 4.783562
v -0.705929 0.271724 4.800588
v -0.697941 0.001948 4.831155
v -0.710112 0.271724 4.833902
v -0.741901 0.001948 4.779929
v -0.730555 0.271724 4.810642
v -0.745534 0.001948 4.827522
v -0.743745 0.271724 4.833040
v -0.724624 0.549109 4.813951
v -0.723805 0.549109 4.828242
v -0.738465 0.549109 4.825611
v -0.738749 0.549109 4.810828
v -0.794030 0.712454 4.809827
v -0.464213 -0.000838 4.883903
v -0.431576 0.387862 4.905376
v -0.464551 -0.002905 4.961185
v -0.431819 0.386379 4.960802
v -0.524866 0.006802 4.883841
v -0.475076 0.393341 4.905332
v -0.525205 0.004735 4.961123
v -0.475318 0.391858 4.960758
v -0.440798 0.744107 4.924915
v -0.440953 0.743162 4.960250
v -0.466602 0.731222 4.959818
v -0.466447 0.732167 4.924484
v -0.446851 0.921474 4.935952
v -0.446950 0.920867 4.958656
v -0.466831 0.896155 4.957909
v -0.466732 0.896762 4.935204
v -0.424237 1.097845 4.952128
v -0.557016 -0.008052 4.763886
v -0.459422 0.312962 4.725534
v -0.521672 -0.011211 4.809936
v -0.434187 0.310707 4.758412
v -0.602926 -0.004460 4.799368
v -0.489663 0.327835 4.749764
v -0.567583 -0.007619 4.845418
v -0.464428 0.325580 4.782642
v -0.336678 0.494912 4.656397
v -0.323567 0.493740 4.673480
v -0.332413 0.511698 4.681500
v -0.345523 0.512870 4.664418
v -0.204681 0.552748 4.572670
v -0.664381 -0.010657 4.780088
v -0.667004 0.228340 4.640415
v -0.619691 -0.017174 4.764879
v -0.635096 0.223687 4.629556
v -0.647956 0.001502 4.823140
v -0.655389 0.246404 4.666805
v -0.603266 -0.005015 4.807930
v -0.623481 0.241751 4.655946
v -0.688877 0.350374 4.498250
v -0.672299 0.347956 4.492608
v -0.668034 0.364180 4.498186
v -0.684612 0.366597 4.503829
v -0.721119 0.370803 4.367065
v -0.645772 -0.003951 5.026977
v -0.669537 0.193994 5.082962
v -0.685363 -0.002858 5.011221
v -0.697137 0.194756 5.071979
v -0.630027 0.002097 4.987832
v -0.658561 0.198210 5.055673
v -0.669618 0.003190 4.972076
v -0.686161 0.198972 5.044689
v -0.666196 0.366447 5.070511
v -0.682797 0.366906 5.063905
v -0.676195 0.369442 5.047490
v -0.659593 0.368983 5.054096
v -0.701481 0.526942 5.084718
vt 0.001001 0.298999
vt 0.209525 0.298999
vt 0.209525 0.201001
vt 0.001001 0.201001
vt 0.104262 0.198999
vt 0.104262 0.001001
vt 0.001001 0.001001
vt 0.001001 0.198999
vt 0.106264 0.048999
vt 0.314788 0.048999
vt 0.314788 0.001001
vt 0.106264 0.001001
vt 0.367420 0.198999
vt 0.367420 0.001001
vt 0.316790 0.001001
vt 0.316790 0.198999
vt 0.209525 0.051001
vt 0.106264 0.051001
vt 0.106264 0.148999
vt 0.209525 0.148999
vt 0.314788 0.198999
vt 0.314788 0.151001
vt 0.106264 0.151001
vt 0.106264 0.198999
vt 0.420052 0.998999
vt 0.420052 0.952002
vt 0.212528 0.998999
vt 0.420052 0.001001
vt 0.369422 0.001001
vt 0.369422 0.198999
vt 0.420052 0.198999
vt 0.209525 0.348999
vt 0.209525 0.301001
vt 0.001001 0.301001
vt 0.001001 0.348999
vt 0.262157 0.201001
vt 0.211527 0.201001
vt 0.211527 0.398999
vt 0.262157 0.398999
vt 0.211527 0.997998
vt 0.211527 0.951001
vt 0.419051 0.951001
vt 0.580949 0.398999
vt 0.630578 0.398999
vt 0.630578 0.202002
vt 0.579948 0.201001
vt 0.629577 0.201001
vt 0.579948 0.397998
vt 0.001001 0.398999
vt 0.209525 0.398999
vt 0.209525 0.351001
vt 0.001001 0.351001
vt 0.314788 0.398999
vt 0.314788 0.201001
vt 0.264159 0.201001
vt 0.264159 0.398999
vt 0.001001 0.448999
vt 0.209525 0.448999
vt 0.209525 0.401001
vt 0.001001 0.401001
vt 0.367420 0.398999
vt 0.367420 0.201001
vt 0.316790 0.201001
vt 0.316790 0.398999
vt 0.314788 0.051001
vt 0.211527 0.051001
vt 0.211527 0.148999
vt 0.314788 0.148999
vt 0.420052 0.448999
vt 0.420052 0.401001
vt 0.211527 0.401001
vt 0.211527 0.448999
vt 0.791476 0.398999
vt 0.841104 0.398999
vt 0.841104 0.202002
vt 0.420052 0.201001
vt 0.369422 0.201001
vt 0.369422 0.398999
vt 0.420052 0.398999
vt 0.209525 0.498999
vt 0.209525 0.451001
vt 0.001001 0.451001
vt 0.001001 0.498999
vt 0.472683 0.001001
vt 0.422054 0.001001
vt 0.422054 0.198999
vt 0.472683 0.198999
vt 0.946367 0.798999
vt 0.896739 0.798999
vt 0.946367 0.602002
vt 0.209525 0.698999
vt 0.209525 0.652002
vt 0.002002 0.698999
vt 0.001001 0.697998
vt 0.001001 0.651001
vt 0.208524 0.651001
vt 0.211527 0.498999
vt 0.420052 0.498999
vt 0.420052 0.451001
vt 0.211527 0.451001
vt 0.472683 0.398999
vt 0.472683 0.201001
vt 0.422054 0.201001
vt 0.422054 0.398999
vt 0.001001 0.548999
vt 0.209525 0.548999
vt 0.209525 0.501001
vt 0.001001 0.501001
vt 0.525315 0.198999
vt 0.525315 0.001001
vt 0.474685 0.001001
vt 0.474685 0.198999
vt 0.525315 0.401001
vt 0.422054 0.401001
vt 0.422054 0.498999
vt 0.525315 0.498999
vt 0.420052 0.548999
vt 0.420052 0.501001
vt 0.211527 0.501001
vt 0.211527 0.548999
vt 0.790475 0.201001
vt 0.840103 0.201001
vt 0.790475 0.397998
vt 0.525315 0.201001
vt 0.474685 0.201001
vt 0.474685 0.398999
vt 0.525315 0.398999
vt 0.209525 0.598999
vt 0.209525 0.551001
vt 0.001001 0.551001
vt 0.001001 0.598999
vt 0.577946 0.001001
vt 0.527317 0.001001
vt 0.527317 0.198999
vt 0.577946 0.198999
vt 0.844107 0.798999
vt 0.893736 0.798999
vt 0.893736 0.602002
vt 0.630578 0.848999
vt 0.630578 0.802002
vt 0.423055 0.848999
vt 0.422054 0.847998
vt 0.422054 0.801001
vt 0.629577 0.801001
vt 0.211527 0.598999
vt 0.420052 0.598999
vt 0.420052 0.551001
vt 0.211527 0.551001
vt 0.577946 0.398999
vt 0.577946 0.201001
vt 0.527317 0.201001
vt 0.527317 0.398999
vt 0.422054 0.548999
vt 0.630578 0.548999
vt 0.630578 0.501001
vt 0.422054 0.501001
vt 0.630578 0.198999
vt 0.630578 0.001001
vt 0.579948 0.001001
vt 0.579948 0.198999
vt 0.630578 0.451001
vt 0.579948 0.451001
vt 0.579948 0.498999
vt 0.630578 0.498999
vt 0.630578 0.598999
vt 0.630578 0.551001
vt 0.422054 0.551001
vt 0.422054 0.598999
vt 0.843106 0.601001
vt 0.892735 0.601001
vt 0.843106 0.797998
vt 0.683210 0.001001
vt 0.632580 0.001001
vt 0.632580 0.198999
vt 0.683210 0.198999
vt 0.209525 0.648999
vt 0.209525 0.601001
vt 0.001001 0.601001
vt 0.001001 0.648999
vt 0.683210 0.201001
vt 0.632580 0.201001
vt 0.632580 0.398999
vt 0.683210 0.398999
vt 0.209525 0.952002
vt 0.209525 0.998999
vt 0.002002 0.998999
vt 0.630578 0.902002
vt 0.630578 0.948999
vt 0.423055 0.948999
vt 0.422054 0.901001
vt 0.422054 0.947998
vt 0.629577 0.901001
vt 0.211527 0.648999
vt 0.420052 0.648999
vt 0.420052 0.601001
vt 0.211527 0.601001
vt 0.683210 0.598999
vt 0.683210 0.401001
vt 0.632580 0.401001
vt 0.632580 0.598999
vt 0.422054 0.648999
vt 0.630578 0.648999
vt 0.630578 0.601001
vt 0.422054 0.601001
vt 0.735841 0.198999
vt 0.735841 0.001001
vt 0.685212 0.001001
vt 0.685212 0.198999
vt 0.946367 0.848999
vt 0.946367 0.801001
vt 0.843106 0.801001
vt 0.843106 0.848999
vt 0.735841 0.201001
vt 0.685212 0.201001
vt 0.685212 0.398999
vt 0.735841 0.398999
vt 0.420052 0.698999
vt 0.420052 0.651001
vt 0.211527 0.651001
vt 0.211527 0.698999
vt 0.735841 0.401001
vt 0.685212 0.401001
vt 0.685212 0.598999
vt 0.735841 0.598999
vt 0.630578 0.698999
vt 0.630578 0.651001
vt 0.422054 0.651001
vt 0.422054 0.698999
vt 0.788473 0.001001
vt 0.737843 0.001001
vt 0.737843 0.198999
vt 0.788473 0.198999
vt 0.895738 0.601001
vt 0.945366 0.601001
vt 0.895738 0.797998
vt 0.209525 0.748999
vt 0.209525 0.701001
vt 0.001001 0.701001
vt 0.001001 0.748999
vt 0.788473 0.201001
vt 0.737843 0.201001
vt 0.737843 0.398999
vt 0.788473 0.398999
vt 0.420052 0.748999
vt 0.420052 0.701001
vt 0.211527 0.701001
vt 0.211527 0.748999
vt 0.001001 0.997998
vt 0.001001 0.951001
vt 0.208524 0.951001
vt 0.998999 0.398999
vt 0.949370 0.398999
vt 0.998999 0.202002
vt 0.997998 0.201001
vt 0.948369 0.201001
vt 0.948369 0.397998
vt 0.788473 0.598999
vt 0.788473 0.401001
vt 0.737843 0.401001
vt 0.737843 0.598999
vt 0.422054 0.748999
vt 0.630578 0.748999
vt 0.630578 0.701001
vt 0.422054 0.701001
vt 0.841104 0.198999
vt 0.841104 0.001001
vt 0.790475 0.001001
vt 0.790475 0.198999
vt 0.001001 0.798999
vt 0.209525 0.798999
vt 0.209525 0.751001
vt 0.001001 0.751001
vt 0.630578 0.401001
vt 0.579948 0.401001
vt 0.579948 0.448999
vt 0.630578 0.448999
vt 0.841104 0.401001
vt 0.790475 0.401001
vt 0.790475 0.598999
vt 0.841104 0.598999
vt 0.841104 0.948999
vt 0.841104 0.902002
vt 0.633581 0.948999
vt 0.420052 0.798999
vt 0.420052 0.751001
vt 0.211527 0.751001
vt 0.211527 0.798999
vt 0.683210 0.601001
vt 0.632580 0.601001
vt 0.632580 0.798999
vt 0.683210 0.798999
vt 0.630578 0.798999
vt 0.630578 0.751001
vt 0.422054 0.751001
vt 0.422054 0.798999
vt 0.632580 0.901001
vt 0.632580 0.947998
vt 0.840103 0.901001
vt 0.998999 0.198999
vt 0.949370 0.198999
vt 0.998999 0.002002
vt 0.997998 0.001001
vt 0.948369 0.001001
vt 0.948369 0.197998
vt 0.735841 0.798999
vt 0.735841 0.601001
vt 0.685212 0.601001
vt 0.685212 0.798999
vt 0.001001 0.848999
vt 0.209525 0.848999
vt 0.209525 0.801001
vt 0.001001 0.801001
vt 0.788473 0.798999
vt 0.788473 0.601001
vt 0.737843 0.601001
vt 0.737843 0.798999
vt 0.211527 0.848999
vt 0.420052 0.848999
vt 0.420052 0.801001
vt 0.211527 0.801001
vt 0.998999 0.401001
vt 0.948369 0.401001
vt 0.948369 0.448999
vt 0.998999 0.448999
vt 0.841104 0.601001
vt 0.790475 0.601001
vt 0.790475 0.798999
vt 0.841104 0.798999
vt 0.946367 0.852002
vt 0.946367 0.898999
vt 0.844107 0.898999
vt 0.841104 0.848999
vt 0.841104 0.801001
vt 0.632580 0.801001
vt 0.632580 0.848999
vt 0.893736 0.001001
vt 0.843106 0.001001
vt 0.843106 0.198999
vt 0.893736 0.198999
vt 0.209525 0.898999
vt 0.209525 0.851001
vt 0.001001 0.851001
vt 0.001001 0.898999
vt 0.843106 0.897998
vt 0.843106 0.851001
vt 0.945366 0.851001
vt 0.577946 0.498999
vt 0.528318 0.498999
vt 0.577946 0.402002
vt 0.576945 0.401001
vt 0.527317 0.401001
vt 0.527317 0.497998
vt 0.893736 0.398999
vt 0.893736 0.201001
vt 0.843106 0.201001
vt 0.843106 0.398999
vt 0.211527 0.898999
vt 0.420052 0.898999
vt 0.420052 0.851001
vt 0.211527 0.851001
vt 0.893736 0.598999
vt 0.893736 0.401001
vt 0.843106 0.401001
vt 0.843106 0.598999
vt 0.422054 0.898999
vt 0.630578 0.898999
vt 0.630578 0.851001
vt 0.422054 0.851001
vt 0.998999 0.451001
vt 0.948369 0.451001
vt 0.948369 0.498999
vt 0.998999 0.498999
vt 0.946367 0.001001
vt 0.895738 0.001001
vt 0.895738 0.198999
vt 0.946367 0.198999
vt 0.420052 0.902002
vt 0.420052 0.948999
vt 0.212528 0.948999
vt 0.841104 0.898999
vt 0.841104 0.851001
vt 0.632580 0.851001
vt 0.632580 0.898999
vt 0.946367 0.201001
vt 0.895738 0.201001
vt 0.895738 0.398999
vt 0.946367 0.398999
vt 0.209525 0.948999
vt 0.209525 0.901001
vt 0.001001 0.901001
vt 0.001001 0.948999
vt 0.946367 0.598999
vt 0.896739 0.598999
vt 0.946367 0.402002
vt 0.211527 0.901001
vt 0.211527 0.947998
vt 0.419051 0.901001
vt 0.945366 0.401001
vt 0.895738 0.401001
vt 0.895738 0.597998
vn -0.0115 0.0403 0.9991
vn -0.9994 -0.0164 0.0295
vn 0.1504 0.0393 -0.9878
vn 0.9812 0.0877 -0.1719
vn 0.0000 -1.0000 -0.0000
vn -0.9997 0.0224 0.0125
vn -0.0983 -0.3204 -0.9422
vn 0.2468 -0.0092 -0.9690
vn 0.0142 0.0572 0.9983
vn 0.9658 0.0155 -0.2587
vn 0.1303 0.3894 0.9118
vn 0.9890 0.0669 0.1321
vn -0.9951 0.0350 -0.0927
vn 0.4973 -0.2389 0.8340
vn -0.8579 0.0148 0.5137
vn -0.4916 0.2799 -0.8246
vn 0.8606 0.0333 -0.5082
vn -0.8476 0.0365 0.5293
vn -0.1509 0.9556 -0.2532
vn -0.4020 0.6194 -0.6743
vn 0.4256 -0.5563 0.7138
vn 0.8687 0.0365 -0.4940
vn 0.2095 -0.9125 0.3513
vn 0.8842 0.0400 -0.4655
vn -0.8299 0.0400 0.5565
vn -0.8550 -0.3924 0.3390
vn -0.3917 0.0651 -0.9178
vn 0.8397 0.4310 -0.3304
vn 0.3797 -0.0186 0.9249
vn 0.1296 -0.9855 -0.1091
vn -0.4113 0.0834 -0.9077
vn 0.1451 0.9894 -0.0066
vn 0.6360 0.7374 -0.2276
vn -0.6861 -0.6825 0.2517
vn 0.3643 -0.0181 0.9311
vn -0.2550 -0.9654 0.0542
vn 0.3338 -0.0199 0.9424
vn -0.4408 0.0815 -0.8939
vn 0.9946 0.0403 0.0961
vn -0.0553 -0.0164 0.9983
vn -0.9716 0.0393 -0.2335
vn -0.0882 0.0877 -0.9922
vn -0.0721 0.0224 0.9971
vn -0.9471 -0.3204 0.0182
vn -0.9447 -0.0092 -0.3279
vn 0.9959 0.0572 0.0704
vn -0.1760 0.0155 -0.9843
vn 0.9196 0.3894 -0.0527
vn 0.2153 0.0669 -0.9742
vn -0.1766 0.0350 0.9837
vn 0.9965 -0.0838 0.0021
vn -0.0009 0.0011 1.0000
vn -0.0069 0.0021 1.0000
vn -0.0041 0.0016 1.0000
vn -0.9918 0.1278 -0.0009
vn 0.0079 0.0545 -0.9985
vn 0.0047 0.0551 -0.9985
vn 0.0019 0.0555 -0.9985
vn -0.1249 -0.9918 -0.0271
vn -0.9997 0.0257 -0.0037
vn -0.0249 0.0630 -0.9977
vn 0.9997 0.0256 0.0051
vn 0.9995 0.0296 0.0052
vn 0.0017 0.0556 -0.9985
vn -0.0071 0.0021 1.0000
vn -0.9784 0.2067 0.0012
vn -0.0336 0.0096 0.9994
vn -1.0000 -0.0014 -0.0044
vn 0.9994 0.0338 0.0053
vn 0.9919 -0.1273 0.0009
vn -0.0900 0.1024 -0.9907
vn -0.0987 0.0493 0.9939
vn 0.7472 -0.2981 -0.5939
vn 0.6106 -0.0397 0.7909
vn -0.7352 0.3383 0.5874
vn -0.6015 0.0872 -0.7941
vn -0.0821 -0.9966 -0.0053
vn 0.6267 -0.0192 0.7791
vn -0.1543 0.9706 0.1850
vn -0.5691 0.6659 0.4825
vn 0.6106 -0.6057 -0.5102
vn -0.5882 0.0894 -0.8038
vn 0.2481 -0.9347 -0.2545
vn -0.5615 0.0908 -0.8225
vn 0.6517 -0.0177 0.7582
vn -0.3447 -0.4765 -0.8088
vn 0.9377 -0.1230 -0.3251
vn 0.3427 0.5129 0.7871
vn -0.9373 0.1675 0.3056
vn -0.0421 -0.9572 0.2864
vn 0.9314 -0.1070 -0.3479
vn 0.1418 0.9899 -0.0074
vn 0.2966 0.7932 0.5318
vn -0.3098 -0.7445 -0.5914
vn -0.9425 0.1663 0.2898
vn -0.1794 -0.9778 -0.1082
vn -0.9523 0.1612 0.2592
vn 0.9191 -0.1117 -0.3778
vn -0.3604 -0.2937 0.8853
vn -0.9293 0.0569 -0.3650
vn -0.9293 0.0585 -0.3647
vn 0.3545 0.3513 -0.8665
vn 0.9274 0.0056 0.3739
vn 0.9273 0.0073 0.3741
vn 0.0289 -0.9896 -0.1413
vn -0.9293 0.0603 -0.3645
vn 0.3626 0.2691 -0.8923
vn 0.3696 -0.0063 -0.9292
vn -0.3670 0.0741 0.9273
vn 0.9272 0.0091 0.3744
vn -0.3688 -0.1621 0.9153
vn 0.9060 0.1647 0.3899
vn -0.9230 -0.0583 -0.3803
g Grass1_Cube.051_Grass1_1.001
usemtl Grass1_1.001
s 1
f 1/1/1 2/2/1 4/3/1 3/4/1
f 3/5/2 4/6/2 8/7/2 7/8/2
f 7/9/3 8/10/3 6/11/3 5/12/3
f 5/13/4 6/14/4 2/15/4 1/16/4
f 3/17/5 7/18/5 5/19/5 1/20/5
f 8/21/6 4/22/6 10/23/6 11/24/6
f 12/25/7 11/26/7 13/27/7
f 6/28/8 8/29/8 11/30/8 12/31/8
f 4/32/9 2/33/9 9/34/9 10/35/9
f 2/36/10 6/37/10 12/38/10 9/39/10
f 10/40/11 9/41/11 13/42/11
f 9/43/12 12/44/12 13/45/12
f 11/46/13 10/47/13 13/48/13
f 14/49/14 15/50/14 17/51/14 16/52/14
f 16/53/15 17/54/15 21/55/15 20/56/15
f 20/57/16 21/58/16 19/59/16 18/60/16
f 18/61/17 19/62/17 15/63/17 14/64/17
f 16/65/5 20/66/5 18/67/5 14/68/5
f 21/69/18 17/70/18 23/71/18 24/72/18
f 25/73/19 24/74/19 26/75/19
f 19/76/20 21/77/20 24/78/20 25/79/20
f 17/80/21 15/81/21 22/82/21 23/83/21
f 15/84/22 19/85/22 25/86/22 22/87/22
f 23/88/23 22/89/23 26/90/23
f 22/91/24 25/92/24 26/93/24
f 24/94/25 23/95/25 26/96/25
f 27/97/26 28/98/26 30/99/26 29/100/26
f 29/101/27 30/102/27 34/103/27 33/104/27
f 33/105/28 34/106/28 32/107/28 31/108/28
f 31/109/29 32/110/29 28/111/29 27/112/29
f 29/113/30 33/114/30 31/115/30 27/116/30
f 34/117/31 30/118/31 36/119/31 37/120/31
f 38/121/32 37/122/32 39/123/32
f 32/124/33 34/125/33 37/126/33 38/127/33
f 30/128/34 28/129/34 35/130/34 36/131/34
f 28/132/35 32/133/35 38/134/35 35/135/35
f 36/136/36 35/137/36 39/138/36
f 35/139/37 38/140/37 39/141/37
f 37/142/38 36/143/38 39/144/38
f 40/145/39 41/146/39 43/147/39 42/148/39
f 42/149/40 43/150/40 47/151/40 46/152/40
f 46/153/41 47/154/41 45/155/41 44/156/41
f 44/157/42 45/158/42 41/159/42 40/160/42
f 42/161/5 46/162/5 44/163/5 40/164/5
f 47/165/43 43/166/43 49/167/43 50/168/43
f 51/169/44 50/170/44 52/171/44
f 45/172/45 47/173/45 50/174/45 51/175/45
f 43/176/46 41/177/46 48/178/46 49/179/46
f 41/180/47 45/181/47 51/182/47 48/183/47
f 49/184/48 48/185/48 52/186/48
f 48/187/49 51/188/49 52/189/49
f 50/190/50 49/191/50 52/192/50
f 53/193/51 54/194/51 56/195/51 55/196/51
f 55/197/52 56/198/53 60/199/54 59/200/52
f 59/201/55 60/202/55 58/203/55 57/204/55
f 57/205/56 58/206/57 54/207/58 53/208/56
f 55/209/59 59/210/59 57/211/59 53/212/59
f 58/213/60 60/214/60 63/215/60 64/216/60
f 61/217/61 64/218/61 68/219/61 65/220/61
f 56/221/62 54/222/62 61/223/63 62/224/63
f 54/225/58 58/226/57 64/227/64 61/228/64
f 60/229/54 56/230/53 62/231/65 63/232/65
f 68/233/66 67/234/66 69/235/66
f 63/236/67 62/237/67 66/238/67 67/239/67
f 64/240/68 63/241/68 67/242/68 68/243/68
f 62/244/63 61/245/63 65/246/69 66/247/69
f 66/248/70 65/249/70 69/250/70
f 65/251/71 68/252/71 69/253/71
f 67/254/72 66/255/72 69/256/72
f 70/257/73 71/258/73 73/259/73 72/260/73
f 72/261/74 73/262/74 77/263/74 76/264/74
f 76/265/75 77/266/75 75/267/75 74/268/75
f 74/269/76 75/270/76 71/271/76 70/272/76
f 72/273/77 76/274/77 74/275/77 70/276/77
f 77/277/78 73/278/78 79/279/78 80/280/78
f 81/281/79 80/282/79 82/283/79
f 75/284/80 77/285/80 80/286/80 81/287/80
f 73/288/81 71/289/81 78/290/81 79/291/81
f 71/292/82 75/293/82 81/294/82 78/295/82
f 79/296/83 78/297/83 82/298/83
f 78/299/84 81/300/84 82/301/84
f 80/302/85 79/303/85 82/304/85
f 83/305/86 84/306/86 86/307/86 85/308/86
f 85/309/87 86/310/87 90/311/87 89/312/87
f 89/313/88 90/314/88 88/315/88 87/316/88
f 87/317/89 88/318/89 84/319/89 83/320/89
f 85/321/90 89/322/90 87/323/90 83/324/90
f 90/325/91 86/326/91 92/327/91 93/328/91
f 94/329/92 93/330/92 95/331/92
f 88/332/93 90/333/93 93/334/93 94/335/93
f 86/336/94 84/337/94 91/338/94 92/339/94
f 84/340/95 88/341/95 94/342/95 91/343/95
f 92/344/96 91/345/96 95/346/96
f 91/347/97 94/348/97 95/349/97
f 93/350/98 92/351/98 95/352/98
f 96/353/99 97/354/99 99/355/99 98/356/99
f 98/357/100 99/358/101 103/359/101 102/360/100
f 102/361/102 103/362/102 101/363/102 100/364/102
f 100/365/103 101/366/104 97/367/104 96/368/103
f 98/369/105 102/370/105 100/371/105 96/372/105
f 103/373/101 99/374/101 105/375/106 106/376/106
f 107/377/107 106/378/107 108/379/107
f 101/380/108 103/381/108 106/382/108 107/383/108
f 99/384/109 97/385/109 104/386/109 105/387/109
f 97/388/104 101/389/104 107/390/110 104/391/110
f 105/392/111 104/393/111 108/394/111
f 104/395/112 107/396/112 108/397/112
f 106/398/113 105/399/113 108/400/113
